<svg xmlns="http://www.w3.org/2000/svg" version="1.1" xmlns:xlink="http://www.w3.org/1999/xlink" xmlns:svgjs="http://svgjs.dev/svgjs" width="1000" height="1000" viewBox="0 0 1000 1000"><rect width="1000" height="1000" fill="#000000"></rect><g transform="matrix(0.7,0,0,0.7,149.57575757575756,411.8408420847059)"><svg viewBox="0 0 396 100" data-background-color="#97978d" preserveAspectRatio="xMidYMid meet" height="252" width="1000" xmlns="http://www.w3.org/2000/svg" xmlns:xlink="http://www.w3.org/1999/xlink"><g id="tight-bounds" transform="matrix(1,0,0,1,0.2400000000000091,-0.02315310924370806)"><svg viewBox="0 0 395.52 100.04630621848739" height="100.04630621848739" width="395.52"><g><svg viewBox="0 0 395.52 100.04630621848739" height="100.04630621848739" width="395.52"><g><svg viewBox="0 0 395.52 100.04630621848739" height="100.04630621848739" width="395.52"><g id="textblocktransform"><svg viewBox="0 0 395.52 100.04630621848739" height="100.04630621848739" width="395.52" id="textblock"><g><svg viewBox="0 0 395.52 100.04630621848739" height="100.04630621848739" width="395.52"><rect width="395.52" height="100.04630621848739" x="0" y="0" opacity="1" fill="#ffffff" data-fill-palette-color="tertiary"></rect><g transform="matrix(1,0,0,1,23.607599999999998,23.607599999999998)"><svg width="348.3048" viewBox="1.5499999523162842 -35.5 237.97999572753906 36.099998474121094" height="52.83110621848739" data-palette-color="#97978d"><path d="M14.45 0.6L14.45 0.6Q10.05 0.6 6.8-0.85 3.55-2.3 1.55-4.8L1.55-4.8 5.9-9.6Q7.8-7.5 10.08-6.5 12.35-5.5 14.7-5.5L14.7-5.5Q17.4-5.5 18.8-6.7 20.2-7.9 20.2-10.15L20.2-10.15Q20.2-12 19.13-12.95 18.05-13.9 15.5-14.3L15.5-14.3 11.85-14.9Q7.15-15.7 5.05-18.38 2.95-21.05 2.95-24.9L2.95-24.9Q2.95-29.95 6.25-32.73 9.55-35.5 15.5-35.5L15.5-35.5Q19.55-35.5 22.55-34.25 25.55-33 27.4-30.85L27.4-30.85 23.15-26.1Q21.75-27.65 19.85-28.53 17.95-29.4 15.55-29.4L15.55-29.4Q10.5-29.4 10.5-25.25L10.5-25.25Q10.5-23.45 11.63-22.55 12.75-21.65 15.3-21.2L15.3-21.2 18.95-20.55Q23.2-19.8 25.5-17.35 27.8-14.9 27.8-10.75L27.8-10.75Q27.8-8.3 26.95-6.23 26.1-4.15 24.4-2.63 22.7-1.1 20.23-0.25 17.75 0.6 14.45 0.6ZM59.75 0L51.75 0 49.55-8.4 40-8.4 37.85 0 30.25 0 39.7-34.9 50.3-34.9 59.75 0ZM48.4-14.45L45-27.65 44.6-27.65 41.2-14.45 48.4-14.45ZM80.3 0L69.7 0 60.45-34.9 68.8-34.9 72.9-17.15 74.95-7.1 75.34-7.1 77.45-17.15 81.59-34.9 89.55-34.9 80.3 0ZM116.29 0L93.99 0 93.99-34.9 116.29-34.9 116.29-28.75 101.49-28.75 101.49-20.75 115.79-20.75 115.79-14.6 101.49-14.6 101.49-6.15 116.29-6.15 116.29 0ZM147.14 0L124.59 0 124.59-34.9 132.14-34.9 132.14-6.15 147.14-6.15 147.14 0ZM168.74 0L161.24 0 161.24-12.35 150.19-34.9 158.54-34.9 162.24-26.8 164.94-19.95 165.34-19.95 168.04-26.8 171.74-34.9 179.79-34.9 168.74-12.35 168.74 0ZM206.29 0L183.99 0 183.99-34.9 206.29-34.9 206.29-28.75 191.49-28.75 191.49-20.75 205.79-20.75 205.79-14.6 191.49-14.6 191.49-6.15 206.29-6.15 206.29 0ZM230.28 0L219.68 0 210.43-34.9 218.78-34.9 222.88-17.15 224.93-7.1 225.33-7.1 227.43-17.15 231.58-34.9 239.53-34.9 230.28 0Z" opacity="1" transform="matrix(1,0,0,1,0,0)" fill="#000000" class="wordmark-text-0" data-fill-palette-color="quaternary" id="text-0"></path></svg></g></svg></g></svg></g></svg></g></svg></g><defs></defs></svg><rect width="395.52" height="100.04630621848739" fill="none" stroke="none" visibility="hidden"></rect></g></svg></g></svg>